<svg width="22" height="22" viewBox="0 0 22 22" fill="none" xmlns="http://www.w3.org/2000/svg">
<path fill-rule="evenodd" clip-rule="evenodd" d="M17.6034 13.9792L15.275 13.7133C14.7159 13.6492 14.1659 13.8417 13.7717 14.2358L12.085 15.9225C9.49087 14.6025 7.3642 12.485 6.0442 9.88167L7.74003 8.18583C8.1342 7.79167 8.3267 7.24167 8.26253 6.6825L7.9967 4.3725C7.8867 3.44667 7.10753 2.75 6.17253 2.75H4.5867C3.55087 2.75 2.6892 3.61167 2.75337 4.6475C3.2392 12.4758 9.50003 18.7275 17.3192 19.2133C18.355 19.2775 19.2167 18.4158 19.2167 17.38V15.7942C19.2259 14.8683 18.5292 14.0892 17.6034 13.9792ZM5.995 4.58333C6.05 5.39917 6.1875 6.19667 6.4075 6.9575L5.3075 8.0575C4.93167 6.9575 4.69333 5.79333 4.61083 4.58333H5.995ZM17.4167 16.0142C16.61 15.9592 15.8125 15.8217 15.0333 15.6017L13.9333 16.6925C15.0425 17.0592 16.2067 17.2975 17.4167 17.38V16.0142Z" fill="#37474F"/>
<mask id="mask0_1_336" style="mask-type:luminance" maskUnits="userSpaceOnUse" x="2" y="2" width="18" height="18">
<path fill-rule="evenodd" clip-rule="evenodd" d="M17.6034 13.9792L15.275 13.7133C14.7159 13.6492 14.1659 13.8417 13.7717 14.2358L12.085 15.9225C9.49087 14.6025 7.3642 12.485 6.0442 9.88167L7.74003 8.18583C8.1342 7.79167 8.3267 7.24167 8.26253 6.6825L7.9967 4.3725C7.8867 3.44667 7.10753 2.75 6.17253 2.75H4.5867C3.55087 2.75 2.6892 3.61167 2.75337 4.6475C3.2392 12.4758 9.50003 18.7275 17.3192 19.2133C18.355 19.2775 19.2167 18.4158 19.2167 17.38V15.7942C19.2259 14.8683 18.5292 14.0892 17.6034 13.9792ZM5.995 4.58333C6.05 5.39917 6.1875 6.19667 6.4075 6.9575L5.3075 8.0575C4.93167 6.9575 4.69333 5.79333 4.61083 4.58333H5.995ZM17.4167 16.0142C16.61 15.9592 15.8125 15.8217 15.0333 15.6017L13.9333 16.6925C15.0425 17.0592 16.2067 17.2975 17.4167 17.38V16.0142Z" fill="white"/>
</mask>
<g mask="url(#mask0_1_336)">
</g>
</svg>
