<svg width="19" height="24" viewBox="0 0 19 24" fill="none" xmlns="http://www.w3.org/2000/svg">
<path fill-rule="evenodd" clip-rule="evenodd" d="M17.4314 3.45186L5.92377 1.00584C5.46386 0.908606 5.00753 1.02038 4.65073 1.27766L2.97802 1.24847C2.12227 1.23448 1.41643 1.93746 1.40011 2.82L1.17785 15.5532L0.328494 19.5491C0.140512 20.4381 0.695242 21.3087 1.5686 21.4953L13.0762 23.9413C13.95 24.1261 14.8109 23.5564 15.0007 22.6678L18.6715 5.39807C18.8595 4.50908 18.3047 3.63849 17.4314 3.45186ZM9.33492 3.4187L13.1708 4.23404C13.356 4.27342 13.4739 4.45822 13.4338 4.64687C13.3938 4.83534 13.2109 4.9564 13.0256 4.91702L9.18975 4.10168C9.00432 4.06227 8.88664 3.87732 8.9267 3.68885C8.9668 3.50019 9.1495 3.37929 9.33492 3.4187ZM12.2203 11.1345C12.5002 9.82412 11.6828 8.5386 10.3949 8.26345C9.10745 7.99139 7.83834 8.82943 7.55586 10.1381C7.27596 11.4485 8.09311 12.734 9.38106 13.0092C10.6692 13.2844 11.9403 12.4452 12.2203 11.1345ZM4.90426 17.7327C4.81479 17.7142 4.73681 17.6602 4.68734 17.5826C4.63788 17.505 4.62136 17.4104 4.6412 17.3198C4.86727 16.2563 5.45443 15.3561 6.29723 14.7858C7.13232 14.226 8.15094 14.0276 9.12564 14.2348C10.1003 14.442 10.9502 15.0375 11.4854 15.8886C12.0234 16.7524 12.1936 17.8136 11.9676 18.8771C11.9489 18.9679 11.8953 19.0476 11.8185 19.0984C11.7418 19.1492 11.6486 19.1668 11.5593 19.1472L4.90426 17.7327Z" fill="#FE3C72"/>
</svg>
