<svg width="20" height="19" viewBox="0 0 20 19" fill="none" xmlns="http://www.w3.org/2000/svg">
<path opacity="0.412435" fill-rule="evenodd" clip-rule="evenodd" d="M2.68749e-05 8.88158C2.68749e-05 3.98421 4.48602 0 10 0C15.514 0 20 3.98421 20 8.88158C20 13.7789 15.514 17.7632 10 17.7632C8.57902 17.7632 7.20702 17.5033 5.91902 16.9905C3.65069 18.2826 0.514693 18.728 0.379693 18.7467C0.364026 18.749 0.348693 18.75 0.33336 18.75C0.20836 18.75 0.0916934 18.6806 0.0350268 18.5678C-0.0289731 18.4414 -0.00363978 18.2885 0.0976934 18.1885C0.864359 17.4322 1.39236 15.8359 1.58936 13.6855C0.548693 12.2516 2.68749e-05 10.5934 2.68749e-05 8.88158ZM4.375 8.75C4.375 9.43937 4.93563 10 5.625 10C6.31437 10 6.875 9.43937 6.875 8.75C6.875 8.06063 6.31437 7.5 5.625 7.5C4.93563 7.5 4.375 8.06063 4.375 8.75ZM10 10C9.31063 10 8.75 9.43937 8.75 8.75C8.75 8.06063 9.31063 7.5 10 7.5C10.6894 7.5 11.25 8.06063 11.25 8.75C11.25 9.43937 10.6894 10 10 10ZM13.125 8.75C13.125 9.43937 13.6856 10 14.375 10C15.0644 10 15.625 9.43937 15.625 8.75C15.625 8.06063 15.0644 7.5 14.375 7.5C13.6856 7.5 13.125 8.06063 13.125 8.75Z" fill="#FE3C72"/>
</svg>
