<svg width="18" height="18" viewBox="0 0 18 18" fill="none" xmlns="http://www.w3.org/2000/svg">
<path fill-rule="evenodd" clip-rule="evenodd" d="M9 18C13.9741 18 18 13.9747 18 9C18 4.02594 13.9747 0 9 0C4.02594 0 0 4.02525 0 9C0 13.9741 4.02525 18 9 18ZM12.9784 7.13864C13.2531 6.86412 13.2531 6.4189 12.9784 6.14424C12.7039 5.86972 12.2587 5.86972 11.984 6.14424L7.76418 10.3642L6.01584 8.61589C5.74132 8.34123 5.2961 8.34123 5.02158 8.61589C4.74692 8.89041 4.74692 9.33563 5.02158 9.61015L7.26704 11.8558C7.5417 12.1303 7.98679 12.1303 8.26144 11.8558L12.9784 7.13864Z" fill="#81C784"/>
</svg>
