<svg width="16" height="22" viewBox="0 0 16 22" fill="none" xmlns="http://www.w3.org/2000/svg">
<path d="M1.58279 18.8391C-0.766612 16.4892 -0.487937 12.6354 2.33482 8.4118C2.84817 7.6434 3.38018 6.94605 3.9922 6.23423L4.50155 5.64346L4.55222 6.17108C4.62956 6.99737 4.74289 7.44999 5.00023 7.96708C5.16157 8.29207 5.42691 8.64074 5.54292 8.74206C5.63092 8.81969 5.58958 8.86442 6.03493 8.64074C8.96702 7.06184 9.2697 4.48428 9.10436 2.26855C9.04703 1.61857 8.90169 0.89359 8.72168 0.36071C8.65235 0.155453 8.61234 -0.00638509 8.63368 0.000193679C8.65501 0.00677244 9.02036 0.347552 9.4457 0.758067C13.5125 4.67506 15.7126 8.77627 15.9979 12.9735C16.0872 17.7839 13.3085 20.3483 9.26437 20.893C5.81359 21.418 3.42952 20.6259 1.58279 18.8391V18.8391Z" fill="#FE3C72"/>
</svg>
