<svg width="24" height="24" viewBox="0 0 24 24" fill="none" xmlns="http://www.w3.org/2000/svg">
<path fill-rule="evenodd" clip-rule="evenodd" d="M11.0018 4.00275C11.0018 3.45275 11.4518 3.00275 12.0018 3.00275C12.5518 3.00275 13.0018 3.45275 13.0018 4.00275V12.0027C13.0018 12.5527 12.5518 13.0027 12.0018 13.0027C11.4518 13.0027 11.0018 12.5527 11.0018 12.0027V4.00275ZM17.1318 7.25275C16.7618 6.86275 16.7518 6.25275 17.1418 5.86275C17.5418 5.46275 18.2018 5.47275 18.5818 5.88275C20.0818 7.48275 21.0018 9.62275 21.0018 11.9927C21.0018 17.0627 16.8118 21.1527 11.7118 20.9927C6.83176 20.8427 2.86176 16.6227 3.00176 11.7427C3.07176 9.47275 3.98176 7.42275 5.43176 5.88275C5.81176 5.47275 6.46176 5.46275 6.86176 5.86275C7.24176 6.24275 7.24176 6.85275 6.87176 7.24275C5.71176 8.49275 5.00176 10.1627 5.00176 12.0027C5.00176 15.9027 8.18176 19.0527 12.0918 18.9927C15.9218 18.9527 19.0918 15.6527 19.0018 11.8227C18.9618 10.0527 18.2618 8.45275 17.1318 7.25275Z" fill="#37474F"/>
<mask id="mask0_1_195" style="mask-type:luminance" maskUnits="userSpaceOnUse" x="2" y="3" width="20" height="18">
<path fill-rule="evenodd" clip-rule="evenodd" d="M11.0018 4.00275C11.0018 3.45275 11.4518 3.00275 12.0018 3.00275C12.5518 3.00275 13.0018 3.45275 13.0018 4.00275V12.0027C13.0018 12.5527 12.5518 13.0027 12.0018 13.0027C11.4518 13.0027 11.0018 12.5527 11.0018 12.0027V4.00275ZM17.1318 7.25275C16.7618 6.86275 16.7518 6.25275 17.1418 5.86275C17.5418 5.46275 18.2018 5.47275 18.5818 5.88275C20.0818 7.48275 21.0018 9.62275 21.0018 11.9927C21.0018 17.0627 16.8118 21.1527 11.7118 20.9927C6.83176 20.8427 2.86176 16.6227 3.00176 11.7427C3.07176 9.47275 3.98176 7.42275 5.43176 5.88275C5.81176 5.47275 6.46176 5.46275 6.86176 5.86275C7.24176 6.24275 7.24176 6.85275 6.87176 7.24275C5.71176 8.49275 5.00176 10.1627 5.00176 12.0027C5.00176 15.9027 8.18176 19.0527 12.0918 18.9927C15.9218 18.9527 19.0918 15.6527 19.0018 11.8227C18.9618 10.0527 18.2618 8.45275 17.1318 7.25275Z" fill="white"/>
</mask>
<g mask="url(#mask0_1_195)">
</g>
</svg>
