<svg width="21" height="21" viewBox="0 0 21 21" fill="none" xmlns="http://www.w3.org/2000/svg">
<path fill-rule="evenodd" clip-rule="evenodd" d="M15.3979 8.77508C15.3979 7.03017 13.973 5.61043 12.2216 5.61043C11.775 5.61043 11.413 5.24699 11.413 4.79855C11.413 4.35012 11.775 3.98667 12.2216 3.98667C13.973 3.98667 15.3979 2.5625 15.3979 0.811881C15.3979 0.363443 15.7599 0 16.2065 0C16.6531 0 17.0151 0.363443 17.0151 0.811881C17.0151 2.55679 18.4401 3.97652 20.1914 3.97652C20.638 3.97652 21 4.33997 21 4.7884C21 5.23663 20.638 5.60028 20.1914 5.60028C18.4401 5.60028 17.0151 7.02446 17.0151 8.77508C17.0151 9.2233 16.6531 9.58696 16.2065 9.58696C15.7599 9.58696 15.3979 9.2233 15.3979 8.77508ZM10.3673 9.71139C11.5265 10.8674 13.0693 11.5039 14.7121 11.5039C15.1593 11.5039 15.5217 11.8679 15.5217 12.3171C15.5217 12.7662 15.1593 13.1302 14.7121 13.1302C11.3257 13.1302 8.57057 15.8863 8.57057 19.2738C8.57057 19.7229 8.20794 20.087 7.76097 20.087C7.3138 20.087 6.95138 19.7229 6.95138 19.2738C6.95138 15.8863 4.196 13.1302 0.809599 13.1302C0.362422 13.1302 0 12.7662 0 12.3171C0 11.8679 0.362422 11.5039 0.809599 11.5039C2.45241 11.5039 3.99529 10.8674 5.15445 9.71139C6.31318 8.55603 6.95138 7.01718 6.95138 5.37837C6.95138 4.92923 7.3138 4.56522 7.76097 4.56522C8.20794 4.56522 8.57057 4.92923 8.57057 5.37837C8.57057 7.01718 9.20856 8.55603 10.3673 9.71139Z" fill="#FE3C72"/>
</svg>
